<?xml version="1.0" encoding="UTF-8" ?>
<!DOCTYPE svg PUBLIC "-//W3C//DTD SVG 1.1//EN" "http://www.w3.org/Graphics/SVG/1.1/DTD/svg11.dtd">
<svg width="845pt" height="626pt" viewBox="0 0 845 626" version="1.1" xmlns="http://www.w3.org/2000/svg">
<g id="#1fad34ff">
<path fill="#1fad34" opacity="1.00" d=" M 351.21 122.21 C 355.95 112.29 368.35 106.74 378.88 110.05 C 389.68 113.42 397.30 124.95 395.51 136.20 C 393.92 145.71 386.23 153.64 376.92 155.89 C 373.04 157.11 368.96 155.97 365.09 155.27 C 360.73 154.29 357.81 150.59 353.97 148.70 C 319.91 167.90 297.10 205.54 295.75 244.63 C 301.74 245.55 307.84 244.42 313.82 245.38 C 316.68 246.69 318.02 249.97 317.85 252.99 C 318.01 277.36 328.32 301.33 345.50 318.55 C 346.50 319.16 347.64 319.39 348.91 319.25 C 350.80 316.79 354.22 315.17 354.53 311.79 C 338.83 295.62 328.69 273.62 328.89 250.88 C 329.07 248.45 330.51 245.90 333.09 245.44 C 339.06 244.28 345.24 245.71 351.23 244.55 C 352.76 227.34 362.11 211.30 375.64 200.72 C 374.95 195.59 377.37 190.51 381.37 187.36 C 385.48 184.74 391.11 184.04 395.41 186.59 C 399.47 188.49 401.87 192.84 402.72 197.09 C 403.45 206.22 392.85 214.85 384.22 210.76 C 381.28 209.05 378.79 212.03 376.87 213.86 C 367.62 223.40 361.72 236.53 362.03 249.94 C 361.66 263.41 366.61 277.18 376.33 286.66 C 378.08 288.26 379.54 290.47 381.90 291.20 C 384.39 290.61 386.77 289.49 389.37 289.42 C 394.98 289.88 400.29 293.71 401.98 299.16 C 405.85 308.82 394.12 320.08 384.63 315.64 C 378.42 313.48 374.81 306.81 375.66 300.41 C 361.74 290.10 352.96 273.55 351.13 256.42 C 347.44 256.20 343.75 256.23 340.06 256.34 C 341.25 275.14 350.11 293.32 364.36 305.66 C 366.51 307.35 368.08 309.59 369.15 312.10 C 368.16 314.06 367.13 316.06 365.45 317.53 C 360.56 322.28 355.86 327.22 350.93 331.92 C 349.55 333.47 347.08 333.75 345.34 332.71 C 322.46 314.15 308.70 285.56 306.83 256.29 C 303.14 256.24 299.45 256.21 295.76 256.42 C 296.86 279.89 304.85 303.15 319.27 321.79 C 328.59 334.26 340.39 344.98 354.07 352.48 C 356.93 350.55 359.68 348.47 362.62 346.65 C 368.97 344.10 376.35 344.04 382.40 347.48 C 389.08 350.69 393.91 357.22 395.19 364.51 C 396.88 369.66 395.02 375.07 392.68 379.68 C 387.44 389.73 374.13 395.03 363.62 390.36 C 353.39 386.41 346.71 374.75 348.84 363.94 C 349.34 361.92 347.03 361.17 345.78 360.22 C 321.59 345.15 302.47 321.99 292.76 295.14 C 285.63 276.21 283.55 255.64 285.51 235.57 C 288.40 213.97 296.16 192.82 309.31 175.34 C 319.59 160.63 333.40 148.48 348.86 139.46 C 348.27 133.63 348.23 127.47 351.21 122.21 M 369.90 120.84 C 367.66 121.23 365.60 122.40 363.95 123.94 C 358.49 128.55 358.86 138.14 364.56 142.41 C 370.34 147.20 380.15 144.89 383.12 137.94 C 387.55 129.66 379.13 118.49 369.90 120.84 M 369.03 357.03 C 363.98 358.54 359.91 363.55 360.35 368.96 C 360.26 374.74 365.29 380.05 371.00 380.44 C 377.90 381.11 384.41 374.83 383.91 367.91 C 383.89 360.64 375.94 354.96 369.03 357.03 Z" />
<path fill="#1fad34" opacity="1.00" d=" M 432.22 134.16 C 430.69 119.96 445.11 106.85 459.10 109.38 C 469.55 110.93 478.23 120.19 479.40 130.64 C 480.18 133.36 478.77 136.07 479.13 138.80 C 481.93 141.78 485.98 143.13 489.02 145.84 C 518.10 166.40 538.01 199.56 542.11 234.98 C 543.35 240.39 542.36 245.98 543.40 251.41 C 542.77 254.92 542.85 258.48 542.80 262.02 C 540.28 287.21 530.72 311.81 514.57 331.41 C 504.71 344.08 491.85 353.88 478.64 362.82 C 483.28 377.17 469.78 392.92 455.06 392.04 C 442.94 391.88 432.44 381.03 432.18 369.01 C 431.95 364.23 433.65 359.59 436.16 355.59 C 441.75 346.79 453.95 342.36 463.77 346.19 C 467.61 347.51 470.49 350.52 473.97 352.48 C 477.34 350.67 480.36 348.33 483.57 346.27 C 488.34 342.53 493.37 339.03 497.49 334.55 C 501.13 331.25 503.81 327.10 507.27 323.63 C 508.14 322.20 509.14 320.84 510.25 319.59 C 523.56 301.26 531.01 279.04 532.27 256.48 C 526.82 256.02 521.35 256.43 515.90 256.22 C 512.71 256.24 509.93 253.24 510.14 250.06 C 510.18 224.54 499.52 199.15 481.05 181.49 C 478.47 182.62 476.57 184.74 474.72 186.78 C 473.37 187.87 473.39 190.19 474.77 191.25 C 489.86 207.19 499.52 228.84 498.89 250.98 C 499.09 253.40 496.92 255.24 494.90 256.11 C 488.92 256.57 482.89 255.99 476.90 256.42 C 474.88 272.78 467.12 288.74 453.97 298.96 C 451.67 301.37 452.64 305.24 451.14 308.10 C 449.43 312.82 444.66 315.70 439.92 316.60 C 432.47 317.19 425.10 310.52 425.26 302.96 C 425.07 294.43 434.65 287.37 442.73 290.23 C 444.31 290.54 446.24 291.99 447.63 290.44 C 450.37 288.03 452.79 285.27 455.34 282.65 C 460.25 275.90 463.91 268.18 465.23 259.89 C 468.24 244.38 463.30 227.84 453.05 215.95 C 451.18 214.01 449.20 212.17 447.39 210.18 C 445.69 210.22 444.04 210.58 442.49 211.25 C 439.21 212.69 435.68 211.27 432.51 210.25 C 429.63 207.59 426.12 204.99 425.47 200.85 C 423.66 192.90 430.94 184.54 439.01 185.06 C 446.09 184.85 452.03 191.28 452.26 198.18 C 452.15 201.68 455.47 203.30 457.68 205.35 C 464.81 212.65 470.87 221.27 473.84 231.13 C 475.38 235.55 475.98 240.21 476.96 244.77 C 480.54 245.09 484.14 245.02 487.73 244.92 C 487.04 229.45 480.63 214.43 470.69 202.63 C 467.26 198.76 463.46 195.24 459.67 191.73 C 459.12 189.65 458.86 187.18 460.69 185.62 C 465.75 180.37 471.02 175.31 476.24 170.21 C 477.76 168.72 480.24 167.22 482.28 168.68 C 488.61 172.91 493.37 178.99 498.28 184.71 C 511.58 201.78 519.78 222.97 520.84 244.60 C 524.65 245.20 528.54 245.19 532.34 244.54 C 531.11 233.32 529.54 222.05 525.60 211.41 C 516.73 185.53 498.49 162.92 474.85 149.10 C 472.65 148.41 471.26 150.63 469.63 151.64 C 462.49 157.21 451.62 158.05 443.95 153.03 C 437.45 149.00 432.60 141.93 432.22 134.16 M 452.13 121.08 C 447.12 122.66 443.47 127.73 443.68 132.99 C 443.53 139.79 450.17 145.84 456.96 144.87 C 463.78 144.80 469.14 137.66 468.04 131.11 C 466.86 124.01 459.13 118.75 452.13 121.08 M 453.09 356.96 C 449.75 357.85 446.82 360.20 445.15 363.21 C 442.43 369.42 445.44 377.67 452.11 379.78 C 458.88 382.53 466.95 377.19 467.66 370.06 C 469.03 362.23 460.75 354.81 453.09 356.96 Z" />
<path fill="#1fad34" opacity="1.00" d=" M 408.76 234.67 C 414.66 230.91 422.97 231.32 428.43 235.64 C 430.53 237.48 428.26 239.61 426.88 240.99 C 421.71 237.53 414.04 236.72 409.22 241.19 C 404.70 244.94 404.14 251.46 405.29 256.84 C 406.69 262.43 412.32 266.37 418.04 265.92 C 421.40 266.25 424.26 264.20 427.37 263.31 C 428.25 264.51 428.98 265.80 429.68 267.13 C 426.88 270.62 422.24 271.92 417.95 272.21 C 410.85 271.93 403.88 267.71 400.93 261.14 C 396.09 252.09 399.79 239.64 408.76 234.67 Z" />
<path fill="#1fad34" opacity="1.00" d=" M 105.42 437.65 C 112.18 436.17 119.14 438.04 125.36 440.69 C 128.23 442.12 131.87 444.15 131.75 447.85 C 131.27 451.01 128.40 454.61 124.87 453.80 C 122.04 452.85 119.58 451.03 116.68 450.29 C 109.29 448.66 100.86 449.87 95.14 455.14 C 89.11 460.88 86.90 469.98 88.67 478.00 C 89.53 483.73 92.54 489.41 97.67 492.37 C 103.13 495.64 109.94 497.24 116.17 495.37 C 119.00 494.81 121.38 493.11 124.00 492.02 C 127.62 490.88 131.85 494.00 131.74 497.82 C 131.50 500.30 129.78 502.40 127.67 503.62 C 120.37 507.82 111.50 509.29 103.28 507.37 C 92.48 505.19 83.12 497.21 78.94 487.07 C 74.97 478.46 75.04 468.23 78.41 459.44 C 82.98 448.26 93.42 439.58 105.42 437.65 Z" />
<path fill="#1fad34" opacity="1.00" d=" M 190.49 437.65 C 208.42 434.38 226.68 448.27 229.80 465.91 C 233.25 482.08 223.59 500.22 207.92 505.88 C 199.34 509.42 189.40 508.74 181.01 504.97 C 172.22 500.76 165.44 492.66 162.65 483.34 C 159.15 472.34 161.34 459.59 168.71 450.65 C 173.89 443.66 182.06 439.29 190.49 437.65 M 191.02 450.82 C 182.84 452.20 176.15 458.98 174.63 467.09 C 173.18 474.87 174.50 483.84 180.53 489.46 C 188.94 497.47 203.68 497.15 211.65 488.66 C 219.25 480.32 219.25 466.47 212.38 457.70 C 207.30 451.60 198.64 449.39 191.02 450.82 Z" />
<path fill="#1fad34" opacity="1.00" d=" M 290.07 437.96 C 296.94 436.02 304.18 437.73 310.63 440.34 C 313.60 441.74 317.13 443.47 317.85 447.03 C 317.89 449.82 316.00 452.32 313.64 453.66 C 309.60 454.72 306.48 451.02 302.70 450.29 C 295.83 448.77 288.04 449.85 282.33 454.15 C 272.15 462.46 271.54 479.35 279.79 489.20 C 286.77 496.30 298.63 498.38 307.37 493.30 C 309.57 491.78 312.20 491.63 314.75 492.15 C 316.13 493.90 318.12 495.74 317.76 498.21 C 317.34 500.30 316.05 502.19 314.21 503.30 C 306.28 508.07 296.33 509.56 287.43 506.89 C 277.04 504.29 268.70 496.04 264.63 486.31 C 261.69 480.33 261.82 473.48 262.35 467.01 C 264.52 452.87 276.06 440.83 290.07 437.96 Z" />
<path fill="#1fad34" opacity="1.00" d=" M 376.45 437.66 C 394.39 434.34 413.03 448.18 415.82 466.07 C 418.11 476.50 414.87 487.83 408.09 496.00 C 401.39 503.71 391.24 508.54 380.95 508.16 C 372.06 508.08 363.32 504.19 357.17 497.80 C 348.94 489.49 345.39 476.98 347.77 465.56 C 350.30 451.48 362.44 440.05 376.45 437.66 M 382.16 450.16 C 375.17 450.05 367.85 452.98 363.90 458.95 C 357.64 468.38 358.45 482.80 367.30 490.37 C 375.07 497.05 387.63 497.15 395.66 490.85 C 404.17 484.13 405.63 471.15 401.19 461.69 C 397.87 454.44 389.98 450.17 382.16 450.16 Z" />
<path fill="#1fad34" opacity="1.00" d=" M 613.20 442.07 C 613.75 439.27 616.66 437.93 619.01 436.85 C 621.11 437.95 623.58 438.99 624.56 441.35 C 626.49 449.37 625.08 457.76 627.30 465.73 C 631.07 473.81 635.76 481.42 639.63 489.44 C 640.84 489.44 642.05 489.44 643.27 489.42 C 647.01 482.12 650.48 474.67 654.72 467.64 C 656.66 464.72 656.06 461.11 656.67 457.83 C 657.73 451.64 656.23 445.02 659.24 439.22 C 660.84 438.44 662.44 437.65 664.05 436.88 C 666.40 437.99 668.99 439.38 669.59 442.17 C 670.57 448.12 668.50 454.04 668.83 460.01 C 669.12 468.34 664.12 475.38 660.35 482.39 C 656.50 489.85 652.82 497.41 648.55 504.64 C 646.26 507.34 642.52 508.92 639.03 507.83 C 635.57 507.07 633.65 503.84 632.07 500.98 C 626.58 490.14 620.45 479.62 615.41 468.56 C 613.54 464.57 614.51 460.11 613.80 455.90 C 613.06 451.34 613.01 446.68 613.20 442.07 Z" />
<path fill="#1fad34" opacity="1.00" d=" M 706.50 446.60 C 710.32 440.86 717.31 438.18 723.88 437.23 C 732.27 436.71 741.24 439.65 746.80 446.17 C 749.76 449.56 746.77 453.78 743.73 455.84 C 738.69 456.72 736.28 451.06 731.70 450.26 C 726.53 449.15 720.69 449.14 716.23 452.37 C 715.42 454.93 714.33 457.80 715.52 460.45 C 716.59 463.43 719.77 464.66 722.53 465.62 C 730.47 468.01 739.27 468.77 746.06 473.98 C 753.58 480.00 754.01 492.57 747.37 499.41 C 737.68 510.73 718.70 510.87 707.73 501.33 C 705.11 498.91 701.99 496.48 701.14 492.83 C 701.08 489.92 703.34 487.82 705.36 486.07 C 707.92 485.88 710.63 486.62 712.11 488.88 C 715.39 493.75 721.32 496.03 727.01 496.18 C 731.55 496.08 736.59 495.15 739.31 491.12 C 739.33 489.02 739.46 486.91 739.22 484.83 C 737.52 481.84 733.81 481.48 730.83 480.66 C 723.00 478.73 714.50 477.22 708.38 471.53 C 701.79 465.20 701.21 453.90 706.50 446.60 Z" />
<path fill="#1fad34" opacity="1.00" d=" M 447.93 444.94 C 447.52 441.12 451.29 438.03 454.90 438.19 C 458.93 438.13 462.96 438.24 466.99 438.17 C 477.74 437.94 488.58 442.15 496.17 449.81 C 502.96 456.92 506.89 467.04 505.59 476.89 C 503.24 494.27 486.21 507.38 469.02 507.14 C 463.71 507.04 458.40 507.29 453.11 507.03 C 450.93 507.08 449.64 505.13 448.16 503.87 C 447.59 484.24 448.01 464.58 447.93 444.94 M 460.68 451.56 C 460.76 465.78 460.63 480.01 460.75 494.24 C 469.84 494.80 480.39 494.17 487.04 487.08 C 495.55 478.83 494.33 463.02 484.55 456.27 C 477.76 451.18 468.79 450.95 460.68 451.56 Z" />
<path fill="#1fad34" opacity="1.00" d=" M 537.15 444.92 C 537.03 441.27 540.32 438.01 543.96 438.19 C 554.32 438.19 564.68 438.19 575.05 438.19 C 579.26 437.94 583.46 443.15 581.02 447.02 C 579.96 449.23 577.54 450.75 575.09 450.68 C 566.61 450.70 558.13 450.63 549.65 450.71 C 549.54 455.84 549.49 460.98 549.70 466.11 C 557.70 466.15 565.70 466.07 573.70 466.16 C 576.35 468.12 579.12 471.73 576.97 475.04 C 574.56 479.31 569.04 478.00 565.00 478.17 C 559.87 478.45 554.63 477.51 549.61 478.79 C 549.58 484.23 549.46 489.67 549.71 495.11 C 558.51 495.15 567.30 495.07 576.10 495.13 C 578.79 494.93 580.13 497.77 581.83 499.38 C 582.24 502.96 580.02 506.93 576.12 507.07 C 565.41 507.21 554.69 507.08 543.97 507.13 C 540.53 507.45 537.00 504.62 537.15 501.04 C 537.12 482.33 537.12 463.62 537.15 444.92 Z" />
</g>
</svg>
