<?xml version="1.0" encoding="UTF-8" ?>
<!DOCTYPE svg PUBLIC "-//W3C//DTD SVG 1.1//EN" "http://www.w3.org/Graphics/SVG/1.1/DTD/svg11.dtd">
<svg width="512pt" height="512pt" viewBox="0 0 512 512" version="1.1" xmlns="http://www.w3.org/2000/svg">
<g id="#00337aff">
<path fill="#00337a" opacity="1.00" d=" M 247.55 0.00 L 262.57 0.00 C 304.27 1.20 345.76 12.36 381.99 33.15 C 430.34 60.41 469.39 103.86 491.23 154.91 C 504.53 185.57 511.44 218.90 512.00 252.30 L 512.00 263.45 C 511.53 272.30 510.87 281.14 509.82 289.94 C 508.61 289.23 507.34 288.60 506.27 287.70 C 483.87 265.26 461.57 242.70 438.97 220.46 C 438.06 219.85 437.12 219.28 436.17 218.75 C 435.05 216.94 433.90 215.14 432.40 213.62 C 422.57 204.07 413.01 194.26 403.28 184.62 C 399.59 181.07 396.34 176.96 391.85 174.36 C 391.39 173.47 390.92 172.59 390.46 171.70 C 387.42 177.72 384.32 183.71 381.25 189.72 C 369.48 178.49 358.19 166.78 346.63 155.33 C 343.46 152.28 340.58 148.89 337.08 146.20 C 336.71 145.93 335.98 145.39 335.61 145.11 C 334.16 143.32 332.79 141.46 331.17 139.82 C 320.08 128.93 309.21 117.81 298.15 106.89 C 293.42 102.31 289.12 97.25 283.84 93.26 C 283.64 92.92 283.24 92.23 283.03 91.89 C 279.15 99.51 275.23 107.10 271.35 114.71 C 255.39 99.15 239.82 83.19 223.96 67.53 C 186.46 75.05 151.54 94.58 125.40 122.48 C 101.96 147.29 85.54 178.67 78.69 212.12 C 70.70 250.62 75.17 291.65 91.62 327.39 C 104.12 354.94 123.63 379.12 147.47 397.69 C 148.74 399.93 150.10 402.16 152.06 403.89 C 171.07 422.21 189.34 441.31 208.65 459.33 C 226.13 477.00 244.24 494.08 261.46 512.00 L 249.45 512.00 C 200.02 510.64 151.00 494.90 110.45 466.54 C 85.70 449.42 64.00 427.91 46.67 403.30 C 23.75 370.95 8.57 333.17 2.80 293.94 C 1.25 283.87 0.54 273.71 0.00 263.55 L 0.00 248.48 C 0.69 233.50 2.21 218.52 5.33 203.83 C 14.26 160.16 35.11 119.08 64.79 85.84 C 90.37 57.06 122.54 34.12 158.13 19.40 C 186.44 7.53 216.93 1.32 247.55 0.00 Z" />
</g>
<g id="#ffef4aff">
<path fill="#ffef4a" opacity="1.00" d=" M 125.40 122.48 C 151.54 94.58 186.46 75.05 223.96 67.53 C 200.31 90.56 184.26 121.28 179.16 153.92 C 173.84 186.83 179.38 221.42 195.03 250.88 C 213.36 285.91 245.57 313.38 283.11 325.85 C 282.90 362.22 283.03 398.60 283.04 434.97 C 253.54 438.45 223.21 434.84 195.43 424.31 C 178.21 417.93 162.12 408.73 147.47 397.69 C 123.63 379.12 104.12 354.94 91.62 327.39 C 75.17 291.65 70.70 250.62 78.69 212.12 C 85.54 178.67 101.96 147.29 125.40 122.48 Z" />
<path fill="#ffef4a" opacity="1.00" d=" M 271.35 114.71 C 275.23 107.10 279.15 99.51 283.03 91.89 C 283.04 128.07 282.92 164.25 283.08 200.42 C 276.82 188.51 271.06 176.31 264.49 164.59 C 252.86 158.08 240.76 152.34 228.94 146.16 C 240.16 140.23 251.52 134.55 262.81 128.75 C 263.89 128.21 264.88 127.47 265.39 126.33 C 267.47 122.51 269.30 118.56 271.35 114.71 Z" />
</g>
<g id="#002659ff">
<path fill="#002659" opacity="1.00" d=" M 223.96 67.53 C 239.82 83.19 255.39 99.15 271.35 114.71 C 269.30 118.56 267.47 122.51 265.39 126.33 C 264.88 127.47 263.89 128.21 262.81 128.75 C 251.52 134.55 240.16 140.23 228.94 146.16 C 240.76 152.34 252.86 158.08 264.49 164.59 C 271.06 176.31 276.82 188.51 283.08 200.42 C 289.02 188.34 295.29 176.42 301.43 164.43 C 313.34 158.42 325.19 152.27 337.08 146.20 C 340.58 148.89 343.46 152.28 346.63 155.33 C 358.19 166.78 369.48 178.49 381.25 189.72 C 378.98 193.99 376.96 198.39 374.61 202.61 C 373.97 203.96 372.57 204.61 371.34 205.30 C 361.49 210.26 351.71 215.36 341.88 220.35 C 352.51 225.96 363.49 231.01 373.88 237.01 C 379.80 247.42 384.79 258.37 390.52 268.90 C 395.59 258.88 400.77 248.91 405.84 238.89 C 406.50 237.18 407.99 236.15 409.59 235.43 C 419.42 230.52 429.14 225.38 438.97 220.46 C 461.57 242.70 483.87 265.26 506.27 287.70 C 507.34 288.60 508.61 289.23 509.82 289.94 C 504.69 330.44 489.28 369.53 465.81 402.91 C 443.71 434.51 414.36 460.99 380.69 479.78 C 346.50 499.10 307.74 509.79 268.60 512.00 L 261.46 512.00 C 244.24 494.08 226.13 477.00 208.65 459.33 C 189.34 441.31 171.07 422.21 152.06 403.89 C 150.10 402.16 148.74 399.93 147.47 397.69 C 162.12 408.73 178.21 417.93 195.43 424.31 C 223.21 434.84 253.54 438.45 283.04 434.97 C 323.51 430.32 362.16 411.75 391.21 383.19 C 417.73 357.35 436.24 323.46 443.57 287.16 C 428.21 302.77 409.62 315.22 389.21 323.18 C 355.60 336.43 317.33 337.41 283.11 325.85 C 245.57 313.38 213.36 285.91 195.03 250.88 C 179.38 221.42 173.84 186.83 179.16 153.92 C 184.26 121.28 200.31 90.56 223.96 67.53 Z" />
<path fill="#002659" opacity="1.00" d=" M 283.84 93.26 C 289.12 97.25 293.42 102.31 298.15 106.89 C 309.21 117.81 320.08 128.93 331.17 139.82 C 332.79 141.46 334.16 143.32 335.61 145.11 C 324.07 139.54 312.78 133.48 301.34 127.71 C 295.56 116.20 289.46 104.85 283.84 93.26 Z" />
<path fill="#002659" opacity="1.00" d=" M 391.85 174.36 C 396.34 176.96 399.59 181.07 403.28 184.62 C 413.01 194.26 422.57 204.07 432.40 213.62 C 433.90 215.14 435.05 216.94 436.17 218.75 C 427.72 214.62 419.44 210.16 411.01 205.99 C 409.13 204.97 406.85 204.16 405.98 202.02 C 401.27 192.80 396.51 183.61 391.85 174.36 Z" />
</g>
<g id="#ffd321ff">
<path fill="#ffd321" opacity="1.00" d=" M 283.03 91.89 C 283.24 92.23 283.64 92.92 283.84 93.26 C 289.46 104.85 295.56 116.20 301.34 127.71 C 312.78 133.48 324.07 139.54 335.61 145.11 C 335.98 145.39 336.71 145.93 337.08 146.20 C 325.19 152.27 313.34 158.42 301.43 164.43 C 295.29 176.42 289.02 188.34 283.08 200.42 C 282.92 164.25 283.04 128.07 283.03 91.89 Z" />
<path fill="#ffd321" opacity="1.00" d=" M 390.46 171.70 C 390.92 172.59 391.39 173.47 391.85 174.36 C 396.51 183.61 401.27 192.80 405.98 202.02 C 406.85 204.16 409.13 204.97 411.01 205.99 C 419.44 210.16 427.72 214.62 436.17 218.75 C 437.12 219.28 438.06 219.85 438.97 220.46 C 429.14 225.38 419.42 230.52 409.59 235.43 C 407.99 236.15 406.50 237.18 405.84 238.89 C 400.77 248.91 395.59 258.88 390.52 268.90 C 384.79 258.37 379.80 247.42 373.88 237.01 C 363.49 231.01 352.51 225.96 341.88 220.35 C 351.71 215.36 361.49 210.26 371.34 205.30 C 372.57 204.61 373.97 203.96 374.61 202.61 C 376.96 198.39 378.98 193.99 381.25 189.72 C 384.32 183.71 387.42 177.72 390.46 171.70 Z" />
<path fill="#ffd321" opacity="1.00" d=" M 389.21 323.18 C 409.62 315.22 428.21 302.77 443.57 287.16 C 436.24 323.46 417.73 357.35 391.21 383.19 C 362.16 411.75 323.51 430.32 283.04 434.97 C 283.03 398.60 282.90 362.22 283.11 325.85 C 317.33 337.41 355.60 336.43 389.21 323.18 Z" />
</g>
</svg>
