<?xml version="1.0" encoding="UTF-8" ?>
<!DOCTYPE svg PUBLIC "-//W3C//DTD SVG 1.1//EN" "http://www.w3.org/Graphics/SVG/1.1/DTD/svg11.dtd">
<svg width="512pt" height="512pt" viewBox="0 0 512 512" version="1.1" xmlns="http://www.w3.org/2000/svg">
<g id="#f0a70aff">
<path fill="#f0a70a" opacity="1.00" d=" M 254.08 8.19 C 258.77 7.01 263.71 11.12 263.50 15.93 C 263.53 27.98 263.54 40.04 263.50 52.10 C 263.60 56.54 259.32 60.41 254.90 59.83 C 251.00 59.52 247.75 55.92 247.87 52.00 C 247.83 39.99 247.84 27.98 247.87 15.96 C 247.74 12.32 250.49 8.85 254.08 8.19 Z" />
<path fill="#f0a70a" opacity="1.00" d=" M 152.18 34.21 C 156.36 32.13 161.76 34.75 162.98 39.19 C 167.05 50.48 171.24 61.72 175.24 73.03 C 176.67 77.07 174.01 81.87 169.88 82.90 C 166.05 84.07 161.66 81.72 160.42 77.94 C 156.29 66.66 152.17 55.38 148.11 44.07 C 146.58 40.38 148.52 35.76 152.18 34.21 Z" />
<path fill="#f0a70a" opacity="1.00" d=" M 352.33 34.40 C 358.04 30.98 365.70 37.29 363.44 43.55 C 359.36 55.03 355.14 66.48 350.95 77.93 C 349.67 81.88 344.92 84.25 341.00 82.74 C 337.09 81.49 334.69 76.80 336.17 72.92 C 340.18 61.60 344.37 50.34 348.46 39.04 C 349.12 37.09 350.47 35.34 352.33 34.40 Z" />
<path fill="#f0a70a" opacity="1.00" d=" M 68.46 91.67 C 71.67 90.20 75.66 91.39 77.77 94.16 C 85.41 103.24 93.06 112.33 100.67 121.44 C 104.03 124.98 102.75 131.28 98.51 133.51 C 95.26 135.36 90.86 134.34 88.60 131.41 C 80.82 122.14 73.00 112.90 65.28 103.57 C 62.12 99.79 63.89 93.42 68.46 91.67 Z" />
<path fill="#f0a70a" opacity="1.00" d=" M 437.29 91.48 C 441.47 89.87 446.58 92.68 447.47 97.06 C 448.17 99.70 447.19 102.50 445.40 104.48 C 437.80 113.51 430.24 122.57 422.62 131.58 C 419.98 134.90 414.58 135.43 411.45 132.53 C 408.38 129.83 407.75 124.68 410.60 121.59 C 418.03 112.70 425.49 103.85 432.91 94.96 C 434.10 93.51 435.44 92.06 437.29 91.48 Z" />
<path fill="#f0a70a" opacity="1.00" d=" M 180.05 135.00 C 208.39 119.97 241.39 113.29 273.29 117.28 C 240.14 121.55 208.10 135.70 183.64 158.63 C 152.81 186.36 133.82 226.61 131.64 267.98 C 131.06 277.49 131.22 287.03 131.36 296.56 C 125.34 298.79 120.49 303.04 115.92 307.40 C 114.28 307.01 113.53 305.53 112.81 304.17 C 108.46 296.10 102.18 289.09 94.69 283.81 C 93.92 259.35 98.26 234.66 108.27 212.26 C 122.65 179.44 148.42 151.80 180.05 135.00 Z" />
<path fill="#f0a70a" opacity="1.00" d=" M 14.26 172.11 C 16.77 170.91 19.76 171.38 22.06 172.85 C 32.22 178.75 42.44 184.55 52.59 190.50 C 55.22 191.95 56.91 194.96 56.61 197.97 C 56.40 201.83 52.92 205.14 49.06 205.16 C 46.81 205.34 44.84 204.12 42.98 203.05 C 33.06 197.25 23.06 191.58 13.15 185.76 C 8.06 182.74 8.74 174.28 14.26 172.11 Z" />
<path fill="#f0a70a" opacity="1.00" d=" M 489.52 172.76 C 493.67 169.76 500.18 172.09 501.41 177.06 C 502.56 180.62 500.65 184.66 497.36 186.32 C 487.00 192.30 476.65 198.32 466.25 204.23 C 462.70 206.27 457.73 204.86 455.78 201.27 C 453.61 197.75 454.92 192.67 458.53 190.67 C 468.85 184.68 479.18 178.71 489.52 172.76 Z" />
</g>
<g id="#fdc202ff">
<path fill="#fdc202" opacity="1.00" d=" M 183.64 158.63 C 208.10 135.70 240.14 121.55 273.29 117.28 C 310.57 121.20 346.15 138.84 371.95 166.02 C 392.30 187.26 406.76 214.18 412.86 242.99 L 412.11 243.56 C 402.52 249.86 395.25 259.05 389.85 269.06 C 389.41 269.11 388.53 269.19 388.09 269.23 C 382.94 263.98 376.96 259.34 369.85 257.14 C 357.35 252.87 342.81 255.23 332.40 263.39 C 320.95 271.94 314.81 286.88 316.86 301.02 C 317.27 302.35 316.94 304.66 315.05 304.41 C 295.03 304.58 275.00 304.35 254.98 304.53 C 244.82 304.81 235.31 311.00 230.50 319.88 C 227.08 326.05 226.58 333.50 228.31 340.27 C 214.20 340.25 200.08 340.28 185.97 340.26 C 184.61 340.53 182.49 339.79 182.98 338.05 C 184.64 326.80 181.35 314.85 173.60 306.44 C 163.37 294.76 145.71 290.69 131.36 296.56 C 131.22 287.03 131.06 277.49 131.64 267.98 C 133.82 226.61 152.81 186.36 183.64 158.63 Z" />
</g>
<g id="#a0cafeff">
<path fill="#a0cafe" opacity="1.00" d=" M 412.11 243.56 C 425.14 234.68 441.53 230.97 457.12 233.27 C 469.44 234.97 480.98 240.64 490.37 248.72 C 491.90 262.30 489.12 276.38 482.23 288.21 C 473.01 304.32 456.48 316.14 438.15 319.30 C 430.85 320.67 423.39 320.25 416.01 320.29 C 361.02 320.29 306.03 320.28 251.04 320.29 C 244.19 320.23 237.33 320.56 230.50 319.88 C 235.31 311.00 244.82 304.81 254.98 304.53 C 275.00 304.35 295.03 304.58 315.05 304.41 C 316.94 304.66 317.27 302.35 316.86 301.02 C 314.81 286.88 320.95 271.94 332.40 263.39 C 342.81 255.23 357.35 252.87 369.85 257.14 C 376.96 259.34 382.94 263.98 388.09 269.23 C 388.53 269.19 389.41 269.11 389.85 269.06 C 395.25 259.05 402.52 249.86 412.11 243.56 Z" />
<path fill="#a0cafe" opacity="1.00" d=" M 13.22 295.16 C 23.03 282.97 37.74 274.66 53.36 273.14 C 51.32 278.37 49.19 283.61 48.17 289.15 C 45.00 304.91 48.57 321.92 57.92 335.00 C 67.06 348.42 82.04 357.48 98.00 360.02 C 103.93 361.01 109.97 360.76 115.95 360.78 C 167.65 360.76 219.35 360.80 271.05 360.78 C 277.21 360.79 283.38 360.60 289.53 361.08 C 282.16 367.87 276.31 376.21 272.39 385.42 C 271.79 387.59 269.01 387.99 267.56 386.42 C 259.02 379.41 248.19 374.54 236.96 375.11 C 221.86 374.27 207.14 381.74 197.36 393.01 C 159.56 393.30 121.75 393.05 83.95 393.13 C 73.92 393.08 63.89 393.29 53.86 392.91 C 38.38 391.29 23.66 383.41 13.77 371.38 C 6.05 362.34 1.52 350.90 0.00 339.17 L 0.00 327.66 C 1.20 315.86 5.68 304.35 13.22 295.16 Z" />
</g>
<g id="#81b8fdff">
<path fill="#81b8fd" opacity="1.00" d=" M 490.37 248.72 C 502.74 259.14 510.22 274.67 512.00 290.64 L 512.00 301.71 C 510.94 314.73 505.86 327.42 497.49 337.46 C 485.59 352.13 466.92 360.95 448.04 360.94 C 433.97 360.92 419.89 360.94 405.82 360.98 C 388.36 344.05 362.88 338.58 339.26 340.31 C 302.27 340.21 265.29 340.30 228.31 340.27 C 226.58 333.50 227.08 326.05 230.50 319.88 C 237.33 320.56 244.19 320.23 251.04 320.29 C 306.03 320.28 361.02 320.29 416.01 320.29 C 423.39 320.25 430.85 320.67 438.15 319.30 C 456.48 316.14 473.01 304.32 482.23 288.21 C 489.12 276.38 491.90 262.30 490.37 248.72 Z" />
</g>
<g id="#c0dbffff">
<path fill="#c0dbff" opacity="1.00" d=" M 53.36 273.14 C 67.83 271.68 82.82 275.32 94.69 283.81 C 102.18 289.09 108.46 296.10 112.81 304.17 C 113.53 305.53 114.28 307.01 115.92 307.40 C 120.49 303.04 125.34 298.79 131.36 296.56 C 145.71 290.69 163.37 294.76 173.60 306.44 C 181.35 314.85 184.64 326.80 182.98 338.05 C 182.49 339.79 184.61 340.53 185.97 340.26 C 200.08 340.28 214.20 340.25 228.31 340.27 C 265.29 340.30 302.27 340.21 339.26 340.31 C 332.09 341.58 324.84 342.60 317.94 345.00 C 307.54 348.44 297.86 353.97 289.53 361.08 C 283.38 360.60 277.21 360.79 271.05 360.78 C 219.35 360.80 167.65 360.76 115.95 360.78 C 109.97 360.76 103.93 361.01 98.00 360.02 C 82.04 357.48 67.06 348.42 57.92 335.00 C 48.57 321.92 45.00 304.91 48.17 289.15 C 49.19 283.61 51.32 278.37 53.36 273.14 Z" />
</g>
<g id="#e3efffff">
<path fill="#e3efff" opacity="1.00" d=" M 339.26 340.31 C 362.88 338.58 388.36 344.05 405.82 360.98 C 411.44 366.26 415.85 372.70 419.55 379.43 C 435.82 410.22 430.92 450.77 407.81 476.82 C 392.31 494.69 368.34 503.57 344.98 503.07 C 278.98 503.05 212.97 503.09 146.97 503.05 C 137.73 503.47 128.54 499.46 122.17 492.83 C 114.53 485.15 110.94 473.60 113.04 462.96 C 115.66 447.44 130.30 435.00 146.03 434.91 C 158.68 434.66 171.34 434.92 184.00 434.78 C 185.31 434.92 186.14 433.70 187.11 433.05 C 187.07 430.35 186.51 427.71 186.35 425.03 C 186.00 413.49 189.91 401.86 197.36 393.01 C 207.14 381.74 221.86 374.27 236.96 375.11 C 248.19 374.54 259.02 379.41 267.56 386.42 C 269.01 387.99 271.79 387.59 272.39 385.42 C 276.31 376.21 282.16 367.87 289.53 361.08 C 297.86 353.97 307.54 348.44 317.94 345.00 C 324.84 342.60 332.09 341.58 339.26 340.31 Z" />
</g>
</svg>
